<svg xmlns="http://www.w3.org/2000/svg" width="16" height="17" viewBox="0 0 16 17" fill="none">
    <path d="M4.00001 7.83341V10.5001M12 6.50008V9.16675M11.3333 3.16675C12.9658 3.16675 13.8487 3.41659 14.2881 3.61037C14.3466 3.63618 14.3759 3.64909 14.4603 3.72966C14.5109 3.77796 14.6033 3.91967 14.627 3.98547C14.6667 4.09524 14.6667 4.15524 14.6667 4.27524V11.4408C14.6667 12.0467 14.6667 12.3496 14.5758 12.5053C14.4834 12.6637 14.3943 12.7373 14.2213 12.7982C14.0513 12.858 13.708 12.7921 13.0215 12.6601C12.5409 12.5679 11.971 12.5001 11.3333 12.5001C9.33334 12.5001 7.33334 13.8334 4.66668 13.8334C3.0342 13.8334 2.15126 13.5835 1.71193 13.3898C1.65342 13.3639 1.62417 13.3511 1.53974 13.2705C1.48914 13.2222 1.39676 13.0805 1.37299 13.0147C1.33334 12.9049 1.33334 12.8449 1.33334 12.7249V5.55931C1.33334 4.95347 1.33334 4.65055 1.4242 4.49484C1.51661 4.33645 1.60574 4.26283 1.77872 4.20195C1.94877 4.14211 2.29203 4.20807 2.97856 4.33998C3.45909 4.43231 4.029 4.50008 4.66668 4.50008C6.66668 4.50008 8.66668 3.16675 11.3333 3.16675ZM9.66668 8.50008C9.66668 9.42055 8.92048 10.1667 8.00001 10.1667C7.07954 10.1667 6.33334 9.42055 6.33334 8.50008C6.33334 7.57961 7.07954 6.83341 8.00001 6.83341C8.92048 6.83341 9.66668 7.57961 9.66668 8.50008Z"
          stroke="currentColor" stroke-width="1.5" stroke-linecap="round" stroke-linejoin="round"/>
</svg>