<svg viewBox="0 0 16 16" fill="none" xmlns="http://www.w3.org/2000/svg">
<path d="M9.33325 4.66602H10.8914C11.0545 4.66602 11.136 4.66602 11.2127 4.68444C11.2808 4.70077 11.3458 4.7277 11.4054 4.76426C11.4727 4.80548 11.5304 4.86313 11.6457 4.97843L14.3542 7.68693C14.4695 7.80223 14.5271 7.85988 14.5683 7.92716C14.6049 7.98681 14.6318 8.05184 14.6482 8.11986C14.6666 8.19659 14.6666 8.27812 14.6666 8.44118V10.3327C14.6666 10.6433 14.6666 10.7986 14.6158 10.9211C14.5482 11.0845 14.4184 11.2143 14.255 11.2819C14.1325 11.3327 13.9772 11.3327 13.6666 11.3327M10.3333 11.3327H9.33325M9.33325 11.3327V4.79935C9.33325 4.05261 9.33325 3.67924 9.18793 3.39403C9.0601 3.14315 8.85612 2.93917 8.60524 2.81134C8.32002 2.66602 7.94666 2.66602 7.19992 2.66602H3.46659C2.71985 2.66602 2.34648 2.66602 2.06126 2.81134C1.81038 2.93917 1.60641 3.14315 1.47858 3.39403C1.33325 3.67924 1.33325 4.05261 1.33325 4.79935V9.99935C1.33325 10.7357 1.93021 11.3327 2.66659 11.3327M9.33325 11.3327H6.66659M6.66659 11.3327C6.66659 12.4373 5.77115 13.3327 4.66659 13.3327C3.56202 13.3327 2.66659 12.4373 2.66659 11.3327M6.66659 11.3327C6.66659 10.2281 5.77115 9.33268 4.66659 9.33268C3.56202 9.33268 2.66659 10.2281 2.66659 11.3327M13.6666 11.666C13.6666 12.5865 12.9204 13.3327 11.9999 13.3327C11.0794 13.3327 10.3333 12.5865 10.3333 11.666C10.3333 10.7455 11.0794 9.99935 11.9999 9.99935C12.9204 9.99935 13.6666 10.7455 13.6666 11.666Z" stroke="#344054" stroke-width="1.5" stroke-linecap="round" stroke-linejoin="round"/>
</svg>
